<svg width="1080" height="3036" viewBox="0 0 1080 3036" fill="none" xmlns="http://www.w3.org/2000/svg">
<path d="M1049.7 834H29.3C21.4 834 15 827.6 15 819.7V84.3C15 76.4 21.4 70 29.3 70H1049.7C1057.6 70 1064 76.4 1064 84.3V819.7C1064 827.6 1057.6 834 1049.7 834Z" fill="#4A1460" stroke="#050505" stroke-miterlimit="10"/>
<path d="M945.9 808.5H585.1C577 808.5 570.5 801.9 570.5 793.9V110.1C570.5 102 577.1 95.5 585.1 95.5H945.8C953.9 95.5 960.4 102.1 960.4 110.1V793.8C960.5 801.9 953.9 808.5 945.9 808.5Z" fill="#320C44"/>
<path d="M496.9 808.5H136.1C128 808.5 121.5 801.9 121.5 793.9V110.1C121.5 102 128.1 95.5 136.1 95.5H496.8C504.9 95.5 511.4 102.1 511.4 110.1V793.8C511.5 801.9 504.9 808.5 496.9 808.5Z" fill="#320C44"/>
<path d="M495.6 801H136.4C131.2 801 127 796.8 127 791.6V113.4C127 108.2 131.2 104 136.4 104H495.6C500.8 104 505 108.2 505 113.4V791.6C505 796.8 500.8 801 495.6 801Z" fill="#873D89" stroke="black" stroke-miterlimit="10"/>
<mask id="mask0_201_2098" style="mask-type:alpha" maskUnits="userSpaceOnUse" x="126" y="103" width="379" height="698">
<path d="M495.1 800.5H135.9C130.7 800.5 126.5 796.3 126.5 791.1V112.9C126.5 107.7 130.7 103.5 135.9 103.5H495.1C500.3 103.5 504.5 107.7 504.5 112.9V791.1C504.5 796.3 500.3 800.5 495.1 800.5Z" fill="#873D89" stroke="black" stroke-miterlimit="10"/>
</mask>
<g mask="url(#mask0_201_2098)">
<path d="M503 102L472 411L441 102H503Z" fill="#D969C0" stroke="#050505" stroke-width="2" stroke-miterlimit="10"/>
<path d="M441 102L410 411L379 102H441Z" fill="#712A73" stroke="black" stroke-miterlimit="10"/>
<path d="M378 102L347 411L316 102H378Z" fill="#D969C0" stroke="#050505" stroke-width="2" stroke-miterlimit="10"/>
<path d="M316 102L285 411L254 102H316Z" fill="#712A73" stroke="black" stroke-miterlimit="10"/>
<path d="M254 102L223 411L192 102H254Z" fill="#D969C0" stroke="#050505" stroke-width="2" stroke-miterlimit="10"/>
<path d="M189 102L158 411L127 102H189Z" fill="#712A73" stroke="black" stroke-miterlimit="10"/>
<path d="M125.5 801.5L157.5 492.5L187.5 801.6L125.5 801.5Z" fill="#D969C0" stroke="#050505" stroke-width="2" stroke-miterlimit="10"/>
<path d="M187.5 801.6L219.5 492.7L249.5 801.8L187.5 801.6Z" fill="#712A73" stroke="black" stroke-miterlimit="10"/>
<path d="M250.5 801.8L282.5 492.9L312.5 802L250.5 801.8Z" fill="#D969C0" stroke="#050505" stroke-width="2" stroke-miterlimit="10"/>
<path d="M250.5 801.8L282.5 492.9L312.5 802L250.5 801.8Z" fill="url(#paint0_linear_201_2098)" stroke="#F3CA38" stroke-width="2" stroke-miterlimit="10"/>
<path d="M312.5 802L344.5 493.1L374.5 802.2L312.5 802Z" fill="#712A73" stroke="black" stroke-miterlimit="10"/>
<path d="M374.5 802.2L406.5 493.3L436.5 802.4L374.5 802.2Z" fill="#D969C0" stroke="#050505" stroke-width="2" stroke-miterlimit="10"/>
<path d="M439.5 802.4L471.5 493.5L501.5 802.5L439.5 802.4Z" fill="#712A73" stroke="black" stroke-miterlimit="10"/>
</g>
<path d="M944.6 801H585.4C580.2 801 576 796.8 576 791.6V113.4C576 108.2 580.2 104 585.4 104H944.6C949.8 104 954 108.2 954 113.4V791.6C954 796.8 949.8 801 944.6 801Z" fill="#873D89" stroke="black" stroke-miterlimit="10"/>
<mask id="mask1_201_2098" style="mask-type:alpha" maskUnits="userSpaceOnUse" x="575" y="103" width="379" height="698">
<path d="M944.1 800.5H584.9C579.7 800.5 575.5 796.3 575.5 791.1V112.9C575.5 107.7 579.7 103.5 584.9 103.5H944.1C949.3 103.5 953.5 107.7 953.5 112.9V791.1C953.5 796.3 949.3 800.5 944.1 800.5Z" fill="#873D89" stroke="black" stroke-miterlimit="10"/>
</mask>
<g mask="url(#mask1_201_2098)">
<path d="M952 102L921 411L890 102H952Z" fill="#D969C0" stroke="#050505" stroke-width="2" stroke-miterlimit="10"/>
<path d="M890 102L859 411L828 102H890Z" fill="#712A73" stroke="black" stroke-miterlimit="10"/>
<path d="M827 102L796 411L765 102H827Z" fill="#D969C0" stroke="#050505" stroke-width="2" stroke-miterlimit="10"/>
<path d="M765 102L734 411L703 102H765Z" fill="#712A73" stroke="black" stroke-miterlimit="10"/>
<path d="M703 102L672 411L641 102H703Z" fill="#D969C0" stroke="#050505" stroke-width="2" stroke-miterlimit="10"/>
<path d="M638 102L607 411L576 102H638Z" fill="#5C215E" stroke="black" stroke-miterlimit="10"/>
<path d="M574.5 801.5L606.5 492.5L636.5 801.6L574.5 801.5Z" fill="#C45180" stroke="#050505" stroke-width="2" stroke-miterlimit="10"/>
<path d="M636.5 801.6L668.5 492.7L698.5 801.8L636.5 801.6Z" fill="#712A73" stroke="black" stroke-miterlimit="10"/>
<path d="M699.5 801.8L731.5 492.9L761.5 802L699.5 801.8Z" fill="#D969C0" stroke="#050505" stroke-width="2" stroke-miterlimit="10"/>
<path d="M761.5 802L793.5 493.1L823.5 802.2L761.5 802Z" fill="#712A73" stroke="black" stroke-miterlimit="10"/>
<path d="M823.5 802.2L855.5 493.3L885.5 802.4L823.5 802.2Z" fill="#D969C0" stroke="#050505" stroke-width="2" stroke-miterlimit="10"/>
<path d="M888.5 802.4L920.5 493.5L950.5 802.5L888.5 802.4Z" fill="#712A73" stroke="black" stroke-miterlimit="10"/>
</g>
<path d="M160 227C176.569 227 190 213.569 190 197C190 180.431 176.569 167 160 167C143.431 167 130 180.431 130 197C130 213.569 143.431 227 160 227Z" fill="#D987FF" stroke="black" stroke-miterlimit="10"/>
<path d="M160.3 222.2C174.107 222.2 185.3 211.007 185.3 197.2C185.3 183.393 174.107 172.2 160.3 172.2C146.493 172.2 135.3 183.393 135.3 197.2C135.3 211.007 146.493 222.2 160.3 222.2Z" fill="#D66DFB" stroke="#A05AB8" stroke-miterlimit="10"/>
<path d="M145.5 182.5C152.5 174.5 167.5 169.5 178.5 185.5C178.5 185.5 164.5 173.5 145.5 182.5Z" fill="#E8CAFF"/>
<path d="M160 287C176.569 287 190 273.569 190 257C190 240.431 176.569 227 160 227C143.431 227 130 240.431 130 257C130 273.569 143.431 287 160 287Z" fill="#D987FF" stroke="black" stroke-miterlimit="10"/>
<path d="M160.3 282.2C174.107 282.2 185.3 271.007 185.3 257.2C185.3 243.393 174.107 232.2 160.3 232.2C146.493 232.2 135.3 243.393 135.3 257.2C135.3 271.007 146.493 282.2 160.3 282.2Z" fill="#D66DFB" stroke="#A05AB8" stroke-miterlimit="10"/>
<path d="M145.5 242.5C152.5 234.5 167.5 229.5 178.5 245.5C178.5 245.5 164.5 233.5 145.5 242.5Z" fill="#E8CAFF"/>
<path d="M160 347C176.569 347 190 333.569 190 317C190 300.431 176.569 287 160 287C143.431 287 130 300.431 130 317C130 333.569 143.431 347 160 347Z" fill="#D987FF" stroke="black" stroke-miterlimit="10"/>
<path d="M160.3 342.2C174.107 342.2 185.3 331.007 185.3 317.2C185.3 303.393 174.107 292.2 160.3 292.2C146.493 292.2 135.3 303.393 135.3 317.2C135.3 331.007 146.493 342.2 160.3 342.2Z" fill="#D66DFB" stroke="#A05AB8" stroke-miterlimit="10"/>
<path d="M145.5 302.5C152.5 294.5 167.5 289.5 178.5 305.5C178.5 305.5 164.5 293.5 145.5 302.5Z" fill="#E8CAFF"/>
<path d="M160 407C176.569 407 190 393.569 190 377C190 360.431 176.569 347 160 347C143.431 347 130 360.431 130 377C130 393.569 143.431 407 160 407Z" fill="#D987FF" stroke="black" stroke-miterlimit="10"/>
<path d="M160.3 402.2C174.107 402.2 185.3 391.007 185.3 377.2C185.3 363.393 174.107 352.2 160.3 352.2C146.493 352.2 135.3 363.393 135.3 377.2C135.3 391.007 146.493 402.2 160.3 402.2Z" fill="#D66DFB" stroke="#A05AB8" stroke-miterlimit="10"/>
<path d="M145.5 362.5C152.5 354.5 167.5 349.5 178.5 365.5C178.5 365.5 164.5 353.5 145.5 362.5Z" fill="#E8CAFF"/>
<path d="M406 677C422.569 677 436 663.569 436 647C436 630.431 422.569 617 406 617C389.431 617 376 630.431 376 647C376 663.569 389.431 677 406 677Z" fill="#D987FF" stroke="black" stroke-miterlimit="10"/>
<path d="M406.3 672.2C420.107 672.2 431.3 661.007 431.3 647.2C431.3 633.393 420.107 622.2 406.3 622.2C392.493 622.2 381.3 633.393 381.3 647.2C381.3 661.007 392.493 672.2 406.3 672.2Z" fill="#D66DFB" stroke="#A05AB8" stroke-miterlimit="10"/>
<path d="M391.5 632.5C398.5 624.5 413.5 619.5 424.5 635.5C424.5 635.5 410.5 623.5 391.5 632.5Z" fill="#E8CAFF"/>
<path d="M406 677C422.569 677 436 663.569 436 647C436 630.431 422.569 617 406 617C389.431 617 376 630.431 376 647C376 663.569 389.431 677 406 677Z" fill="url(#paint1_linear_201_2098)" stroke="#F3CA38" stroke-width="2" stroke-miterlimit="10"/>
<path d="M182 2886C198.569 2886 212 2872.57 212 2856C212 2839.43 198.569 2826 182 2826C165.431 2826 152 2839.43 152 2856C152 2872.57 165.431 2886 182 2886Z" fill="url(#paint2_linear_201_2098)" stroke="#F3CA38" stroke-width="2" stroke-miterlimit="10"/>
<path d="M406 739C422.569 739 436 725.569 436 709C436 692.431 422.569 679 406 679C389.431 679 376 692.431 376 709C376 725.569 389.431 739 406 739Z" fill="#D987FF" stroke="black" stroke-miterlimit="10"/>
<path d="M406.3 734.2C420.107 734.2 431.3 723.007 431.3 709.2C431.3 695.393 420.107 684.2 406.3 684.2C392.493 684.2 381.3 695.393 381.3 709.2C381.3 723.007 392.493 734.2 406.3 734.2Z" fill="#D66DFB" stroke="#A05AB8" stroke-miterlimit="10"/>
<path d="M391.5 694.5C398.5 686.5 413.5 681.5 424.5 697.5C424.5 697.5 410.5 685.5 391.5 694.5Z" fill="#E8CAFF"/>
<path d="M406 799C422.569 799 436 785.569 436 769C436 752.431 422.569 739 406 739C389.431 739 376 752.431 376 769C376 785.569 389.431 799 406 799Z" fill="#D987FF" stroke="black" stroke-miterlimit="10"/>
<path d="M406.3 794.2C420.107 794.2 431.3 783.007 431.3 769.2C431.3 755.393 420.107 744.2 406.3 744.2C392.493 744.2 381.3 755.393 381.3 769.2C381.3 783.007 392.493 794.2 406.3 794.2Z" fill="#D66DFB" stroke="#A05AB8" stroke-miterlimit="10"/>
<path d="M391.5 754.5C398.5 746.5 413.5 741.5 424.5 757.5C424.5 757.5 410.5 745.5 391.5 754.5Z" fill="#E8CAFF"/>
<path d="M160 167C176.569 167 190 153.569 190 137C190 120.431 176.569 107 160 107C143.431 107 130 120.431 130 137C130 153.569 143.431 167 160 167Z" fill="#D987FF" stroke="black" stroke-miterlimit="10"/>
<path d="M160.3 162.2C174.107 162.2 185.3 151.007 185.3 137.2C185.3 123.393 174.107 112.2 160.3 112.2C146.493 112.2 135.3 123.393 135.3 137.2C135.3 151.007 146.493 162.2 160.3 162.2Z" fill="#D66DFB" stroke="#A05AB8" stroke-miterlimit="10"/>
<path d="M145.5 122.5C152.5 114.5 167.5 109.5 178.5 125.5C178.5 125.5 164.5 113.5 145.5 122.5Z" fill="#E8CAFF"/>
<path d="M606 617C622.569 617 636 603.569 636 587C636 570.431 622.569 557 606 557C589.431 557 576 570.431 576 587C576 603.569 589.431 617 606 617Z" fill="#D987FF" stroke="black" stroke-miterlimit="10"/>
<path d="M606.3 612.2C620.107 612.2 631.3 601.007 631.3 587.2C631.3 573.393 620.107 562.2 606.3 562.2C592.493 562.2 581.3 573.393 581.3 587.2C581.3 601.007 592.493 612.2 606.3 612.2Z" fill="#D66DFB" stroke="#A05AB8" stroke-miterlimit="10"/>
<path d="M591.5 572.5C598.5 564.5 613.5 559.5 624.5 575.5C624.5 575.5 610.5 563.5 591.5 572.5Z" fill="#E8CAFF"/>
<path d="M606 677C622.569 677 636 663.569 636 647C636 630.431 622.569 617 606 617C589.431 617 576 630.431 576 647C576 663.569 589.431 677 606 677Z" fill="#D987FF" stroke="black" stroke-miterlimit="10"/>
<path d="M606.3 672.2C620.107 672.2 631.3 661.007 631.3 647.2C631.3 633.393 620.107 622.2 606.3 622.2C592.493 622.2 581.3 633.393 581.3 647.2C581.3 661.007 592.493 672.2 606.3 672.2Z" fill="#D66DFB" stroke="#A05AB8" stroke-miterlimit="10"/>
<path d="M591.5 632.5C598.5 624.5 613.5 619.5 624.5 635.5C624.5 635.5 610.5 623.5 591.5 632.5Z" fill="#E8CAFF"/>
<path d="M606 737C622.569 737 636 723.569 636 707C636 690.431 622.569 677 606 677C589.431 677 576 690.431 576 707C576 723.569 589.431 737 606 737Z" fill="#D987FF" stroke="black" stroke-miterlimit="10"/>
<path d="M606.3 732.2C620.107 732.2 631.3 721.007 631.3 707.2C631.3 693.393 620.107 682.2 606.3 682.2C592.493 682.2 581.3 693.393 581.3 707.2C581.3 721.007 592.493 732.2 606.3 732.2Z" fill="#D66DFB" stroke="#A05AB8" stroke-miterlimit="10"/>
<path d="M591.5 692.5C598.5 684.5 613.5 679.5 624.5 695.5C624.5 695.5 610.5 683.5 591.5 692.5Z" fill="#E8CAFF"/>
<path d="M606 797C622.569 797 636 783.569 636 767C636 750.431 622.569 737 606 737C589.431 737 576 750.431 576 767C576 783.569 589.431 797 606 797Z" fill="#D987FF" stroke="black" stroke-miterlimit="10"/>
<path d="M606.3 792.2C620.107 792.2 631.3 781.007 631.3 767.2C631.3 753.393 620.107 742.2 606.3 742.2C592.493 742.2 581.3 753.393 581.3 767.2C581.3 781.007 592.493 792.2 606.3 792.2Z" fill="#D66DFB" stroke="#A05AB8" stroke-miterlimit="10"/>
<path d="M591.5 752.5C598.5 744.5 613.5 739.5 624.5 755.5C624.5 755.5 610.5 743.5 591.5 752.5Z" fill="#E8CAFF"/>
<path d="M606 557C622.569 557 636 543.569 636 527C636 510.431 622.569 497 606 497C589.431 497 576 510.431 576 527C576 543.569 589.431 557 606 557Z" fill="#D987FF" stroke="black" stroke-miterlimit="10"/>
<path d="M606.3 552.2C620.107 552.2 631.3 541.007 631.3 527.2C631.3 513.393 620.107 502.2 606.3 502.2C592.493 502.2 581.3 513.393 581.3 527.2C581.3 541.007 592.493 552.2 606.3 552.2Z" fill="#D66DFB" stroke="#A05AB8" stroke-miterlimit="10"/>
<path d="M591.5 512.5C598.5 504.5 613.5 499.5 624.5 515.5C624.5 515.5 610.5 503.5 591.5 512.5Z" fill="#E8CAFF"/>
<path d="M919 224C935.569 224 949 210.569 949 194C949 177.431 935.569 164 919 164C902.431 164 889 177.431 889 194C889 210.569 902.431 224 919 224Z" fill="#D987FF" stroke="black" stroke-miterlimit="10"/>
<path d="M919.3 219.2C933.107 219.2 944.3 208.007 944.3 194.2C944.3 180.393 933.107 169.2 919.3 169.2C905.493 169.2 894.3 180.393 894.3 194.2C894.3 208.007 905.493 219.2 919.3 219.2Z" fill="#D66DFB" stroke="#A05AB8" stroke-miterlimit="10"/>
<path d="M904.5 179.5C911.5 171.5 926.5 166.5 937.5 182.5C937.5 182.5 923.5 170.5 904.5 179.5Z" fill="#E8CAFF"/>
<path d="M919 164C935.569 164 949 150.569 949 134C949 117.431 935.569 104 919 104C902.431 104 889 117.431 889 134C889 150.569 902.431 164 919 164Z" fill="#D987FF" stroke="black" stroke-miterlimit="10"/>
<path d="M919.3 159.2C933.107 159.2 944.3 148.007 944.3 134.2C944.3 120.393 933.107 109.2 919.3 109.2C905.493 109.2 894.3 120.393 894.3 134.2C894.3 148.007 905.493 159.2 919.3 159.2Z" fill="#D66DFB" stroke="#A05AB8" stroke-miterlimit="10"/>
<path d="M904.5 119.5C911.5 111.5 926.5 106.5 937.5 122.5C937.5 122.5 923.5 110.5 904.5 119.5Z" fill="#E8CAFF"/>
<path d="M160 798C176.569 798 190 784.569 190 768C190 751.431 176.569 738 160 738C143.431 738 130 751.431 130 768C130 784.569 143.431 798 160 798Z" fill="#3A054D" stroke="#070606" stroke-miterlimit="10"/>
<path d="M160.3 793.2C174.107 793.2 185.3 782.007 185.3 768.2C185.3 754.393 174.107 743.2 160.3 743.2C146.493 743.2 135.3 754.393 135.3 768.2C135.3 782.007 146.493 793.2 160.3 793.2Z" fill="#22032C"/>
<path d="M145.5 753.5C152.5 745.5 167.5 740.5 178.5 756.5C178.5 756.5 164.5 744.5 145.5 753.5Z" fill="#7D688A"/>
<path d="M160 737C176.569 737 190 723.569 190 707C190 690.431 176.569 677 160 677C143.431 677 130 690.431 130 707C130 723.569 143.431 737 160 737Z" fill="#3A054D" stroke="#070606" stroke-miterlimit="10"/>
<path d="M160.3 732.2C174.107 732.2 185.3 721.007 185.3 707.2C185.3 693.393 174.107 682.2 160.3 682.2C146.493 682.2 135.3 693.393 135.3 707.2C135.3 721.007 146.493 732.2 160.3 732.2Z" fill="#22032C"/>
<path d="M145.5 692.5C152.5 684.5 167.5 679.5 178.5 695.5C178.5 695.5 164.5 683.5 145.5 692.5Z" fill="#7D688A"/>
<path d="M160 676C176.569 676 190 662.569 190 646C190 629.431 176.569 616 160 616C143.431 616 130 629.431 130 646C130 662.569 143.431 676 160 676Z" fill="#3A054D" stroke="#070606" stroke-miterlimit="10"/>
<path d="M160.3 671.2C174.107 671.2 185.3 660.007 185.3 646.2C185.3 632.393 174.107 621.2 160.3 621.2C146.493 621.2 135.3 632.393 135.3 646.2C135.3 660.007 146.493 671.2 160.3 671.2Z" fill="#22032C"/>
<path d="M145.5 631.5C152.5 623.5 167.5 618.5 178.5 634.5C178.5 634.5 164.5 622.5 145.5 631.5Z" fill="#7D688A"/>
<path d="M159 615C175.569 615 189 601.569 189 585C189 568.431 175.569 555 159 555C142.431 555 129 568.431 129 585C129 601.569 142.431 615 159 615Z" fill="#3A054D" stroke="#070606" stroke-miterlimit="10"/>
<path d="M159.3 610.2C173.107 610.2 184.3 599.007 184.3 585.2C184.3 571.393 173.107 560.2 159.3 560.2C145.493 560.2 134.3 571.393 134.3 585.2C134.3 599.007 145.493 610.2 159.3 610.2Z" fill="#22032C"/>
<path d="M144.5 570.5C151.5 562.5 166.5 557.5 177.5 573.5C177.5 573.5 163.5 561.5 144.5 570.5Z" fill="#7D688A"/>
<path d="M159 554C175.569 554 189 540.569 189 524C189 507.431 175.569 494 159 494C142.431 494 129 507.431 129 524C129 540.569 142.431 554 159 554Z" fill="#3A054D" stroke="#070606" stroke-miterlimit="10"/>
<path d="M159.3 549.2C173.107 549.2 184.3 538.007 184.3 524.2C184.3 510.393 173.107 499.2 159.3 499.2C145.493 499.2 134.3 510.393 134.3 524.2C134.3 538.007 145.493 549.2 159.3 549.2Z" fill="#22032C"/>
<path d="M144.5 509.5C151.5 501.5 166.5 496.5 177.5 512.5C177.5 512.5 163.5 500.5 144.5 509.5Z" fill="#7D688A"/>
<path d="M918 798C934.569 798 948 784.569 948 768C948 751.431 934.569 738 918 738C901.431 738 888 751.431 888 768C888 784.569 901.431 798 918 798Z" fill="#3A054D" stroke="#070606" stroke-miterlimit="10"/>
<path d="M918.3 793.2C932.107 793.2 943.3 782.007 943.3 768.2C943.3 754.393 932.107 743.2 918.3 743.2C904.493 743.2 893.3 754.393 893.3 768.2C893.3 782.007 904.493 793.2 918.3 793.2Z" fill="#22032C"/>
<path d="M903.5 753.5C910.5 745.5 925.5 740.5 936.5 756.5C936.5 756.5 922.5 744.5 903.5 753.5Z" fill="#7D688A"/>
<path d="M918 737C934.569 737 948 723.569 948 707C948 690.431 934.569 677 918 677C901.431 677 888 690.431 888 707C888 723.569 901.431 737 918 737Z" fill="#3A054D" stroke="#070606" stroke-miterlimit="10"/>
<path d="M918.3 732.2C932.107 732.2 943.3 721.007 943.3 707.2C943.3 693.393 932.107 682.2 918.3 682.2C904.493 682.2 893.3 693.393 893.3 707.2C893.3 721.007 904.493 732.2 918.3 732.2Z" fill="#22032C"/>
<path d="M903.5 692.5C910.5 684.5 925.5 679.5 936.5 695.5C936.5 695.5 922.5 683.5 903.5 692.5Z" fill="#7D688A"/>
<path d="M609 409C625.569 409 639 395.569 639 379C639 362.431 625.569 349 609 349C592.431 349 579 362.431 579 379C579 395.569 592.431 409 609 409Z" fill="#3A054D" stroke="#070606" stroke-miterlimit="10"/>
<path d="M609.3 404.2C623.107 404.2 634.3 393.007 634.3 379.2C634.3 365.393 623.107 354.2 609.3 354.2C595.493 354.2 584.3 365.393 584.3 379.2C584.3 393.007 595.493 404.2 609.3 404.2Z" fill="#22032C"/>
<path d="M594.5 364.5C601.5 356.5 616.5 351.5 627.5 367.5C627.5 367.5 613.5 355.5 594.5 364.5Z" fill="#7D688A"/>
<path d="M609 348C625.569 348 639 334.569 639 318C639 301.431 625.569 288 609 288C592.431 288 579 301.431 579 318C579 334.569 592.431 348 609 348Z" fill="#3A054D" stroke="#070606" stroke-miterlimit="10"/>
<path d="M609.3 343.2C623.107 343.2 634.3 332.007 634.3 318.2C634.3 304.393 623.107 293.2 609.3 293.2C595.493 293.2 584.3 304.393 584.3 318.2C584.3 332.007 595.493 343.2 609.3 343.2Z" fill="#22032C"/>
<path d="M594.5 303.5C601.5 295.5 616.5 290.5 627.5 306.5C627.5 306.5 613.5 294.5 594.5 303.5Z" fill="#7D688A"/>
<path d="M609 287C625.569 287 639 273.569 639 257C639 240.431 625.569 227 609 227C592.431 227 579 240.431 579 257C579 273.569 592.431 287 609 287Z" fill="#3A054D" stroke="#070606" stroke-miterlimit="10"/>
<path d="M609.3 282.2C623.107 282.2 634.3 271.007 634.3 257.2C634.3 243.393 623.107 232.2 609.3 232.2C595.493 232.2 584.3 243.393 584.3 257.2C584.3 271.007 595.493 282.2 609.3 282.2Z" fill="#22032C"/>
<path d="M594.5 242.5C601.5 234.5 616.5 229.5 627.5 245.5C627.5 245.5 613.5 233.5 594.5 242.5Z" fill="#7D688A"/>
<path d="M411 286C427.569 286 441 272.569 441 256C441 239.431 427.569 226 411 226C394.431 226 381 239.431 381 256C381 272.569 394.431 286 411 286Z" fill="#3A054D" stroke="#070606" stroke-miterlimit="10"/>
<path d="M411.3 281.2C425.107 281.2 436.3 270.007 436.3 256.2C436.3 242.393 425.107 231.2 411.3 231.2C397.493 231.2 386.3 242.393 386.3 256.2C386.3 270.007 397.493 281.2 411.3 281.2Z" fill="#22032C"/>
<path d="M396.5 241.5C403.5 233.5 418.5 228.5 429.5 244.5C429.5 244.5 415.5 232.5 396.5 241.5Z" fill="#7D688A"/>
<path d="M411 225C427.569 225 441 211.569 441 195C441 178.431 427.569 165 411 165C394.431 165 381 178.431 381 195C381 211.569 394.431 225 411 225Z" fill="#3A054D" stroke="#070606" stroke-miterlimit="10"/>
<path d="M411.3 220.2C425.107 220.2 436.3 209.007 436.3 195.2C436.3 181.393 425.107 170.2 411.3 170.2C397.493 170.2 386.3 181.393 386.3 195.2C386.3 209.007 397.493 220.2 411.3 220.2Z" fill="#22032C"/>
<path d="M396.5 180.5C403.5 172.5 418.5 167.5 429.5 183.5C429.5 183.5 415.5 171.5 396.5 180.5Z" fill="#7D688A"/>
<path d="M411 164C427.569 164 441 150.569 441 134C441 117.431 427.569 104 411 104C394.431 104 381 117.431 381 134C381 150.569 394.431 164 411 164Z" fill="#3A054D" stroke="#070606" stroke-miterlimit="10"/>
<path d="M411.3 159.2C425.107 159.2 436.3 148.007 436.3 134.2C436.3 120.393 425.107 109.2 411.3 109.2C397.493 109.2 386.3 120.393 386.3 134.2C386.3 148.007 397.493 159.2 411.3 159.2Z" fill="#22032C"/>
<path d="M396.5 119.5C403.5 111.5 418.5 106.5 429.5 122.5C429.5 122.5 415.5 110.5 396.5 119.5Z" fill="#7D688A"/>
<path d="M609 226C625.569 226 639 212.569 639 196C639 179.431 625.569 166 609 166C592.431 166 579 179.431 579 196C579 212.569 592.431 226 609 226Z" fill="#3A054D" stroke="#070606" stroke-miterlimit="10"/>
<path d="M609.3 221.2C623.107 221.2 634.3 210.007 634.3 196.2C634.3 182.393 623.107 171.2 609.3 171.2C595.493 171.2 584.3 182.393 584.3 196.2C584.3 210.007 595.493 221.2 609.3 221.2Z" fill="#22032C"/>
<path d="M594.5 181.5C601.5 173.5 616.5 168.5 627.5 184.5C627.5 184.5 613.5 172.5 594.5 181.5Z" fill="#7D688A"/>
<path d="M609 165C625.569 165 639 151.569 639 135C639 118.431 625.569 105 609 105C592.431 105 579 118.431 579 135C579 151.569 592.431 165 609 165Z" fill="#3A054D" stroke="#070606" stroke-miterlimit="10"/>
<path d="M609.3 160.2C623.107 160.2 634.3 149.007 634.3 135.2C634.3 121.393 623.107 110.2 609.3 110.2C595.493 110.2 584.3 121.393 584.3 135.2C584.3 149.007 595.493 160.2 609.3 160.2Z" fill="#22032C"/>
<path d="M594.5 120.5C601.5 112.5 616.5 107.5 627.5 123.5C627.5 123.5 613.5 111.5 594.5 120.5Z" fill="#7D688A"/>
<path d="M145.4 982.8H103.6C101.3 982.8 99.5 981 99.5 978.7V936.9C99.5 934.6 101.3 932.8 103.6 932.8H145.4C147.7 932.8 149.5 934.6 149.5 936.9V978.7C149.5 981 147.7 982.8 145.4 982.8Z" fill="#320C44" stroke="#452060" stroke-miterlimit="10"/>
<path d="M112.7 950.1C115.461 950.1 117.7 947.861 117.7 945.1C117.7 942.338 115.461 940.1 112.7 940.1C109.939 940.1 107.7 942.338 107.7 945.1C107.7 947.861 109.939 950.1 112.7 950.1Z" fill="#F4E1FF" stroke="#9B9B9B" stroke-width="0.5" stroke-miterlimit="10"/>
<path d="M112 941.3C112 941.3 116 940.3 117 944.3C117 944.3 116 942.3 112 941.3Z" fill="white"/>
<path d="M125 963.3C127.761 963.3 130 961.061 130 958.3C130 955.538 127.761 953.3 125 953.3C122.239 953.3 120 955.538 120 958.3C120 961.061 122.239 963.3 125 963.3Z" fill="#F4E1FF" stroke="#9B9B9B" stroke-width="0.5" stroke-miterlimit="10"/>
<path d="M124.5 954.6C124.5 954.6 128.5 953.6 129.5 957.6C129.5 957.6 128.5 955.6 124.5 954.6Z" fill="white"/>
<path d="M136.5 975.8C139.261 975.8 141.5 973.561 141.5 970.8C141.5 968.038 139.261 965.8 136.5 965.8C133.739 965.8 131.5 968.038 131.5 970.8C131.5 973.561 133.739 975.8 136.5 975.8Z" fill="#F4E1FF" stroke="#9B9B9B" stroke-width="0.5" stroke-miterlimit="10"/>
<path d="M136 967.3C136 967.3 140 966.3 141 970.3C141 970.3 140 968.3 136 967.3Z" fill="white"/>
<path d="M267.4 982.8H225.6C223.3 982.8 221.5 981 221.5 978.7V936.9C221.5 934.6 223.3 932.8 225.6 932.8H267.4C269.7 932.8 271.5 934.6 271.5 936.9V978.7C271.5 981 269.7 982.8 267.4 982.8Z" fill="#320C44" stroke="#452060" stroke-miterlimit="10"/>
<path d="M234.7 950.1C237.461 950.1 239.7 947.861 239.7 945.1C239.7 942.338 237.461 940.1 234.7 940.1C231.939 940.1 229.7 942.338 229.7 945.1C229.7 947.861 231.939 950.1 234.7 950.1Z" fill="#F4E1FF" stroke="#9B9B9B" stroke-width="0.5" stroke-miterlimit="10"/>
<path d="M234 941.3C234 941.3 238 940.3 239 944.3C239 944.3 238 942.3 234 941.3Z" fill="white"/>
<path d="M258.5 975.8C261.261 975.8 263.5 973.561 263.5 970.8C263.5 968.038 261.261 965.8 258.5 965.8C255.739 965.8 253.5 968.038 253.5 970.8C253.5 973.561 255.739 975.8 258.5 975.8Z" fill="#F4E1FF" stroke="#9B9B9B" stroke-width="0.5" stroke-miterlimit="10"/>
<path d="M258 967.3C258 967.3 262 966.3 263 970.3C263 970.3 262 968.3 258 967.3Z" fill="white"/>
<path d="M206.4 982.8H164.6C162.3 982.8 160.5 981 160.5 978.7V936.9C160.5 934.6 162.3 932.8 164.6 932.8H206.4C208.7 932.8 210.5 934.6 210.5 936.9V978.7C210.5 981 208.7 982.8 206.4 982.8Z" fill="#320C44" stroke="#452060" stroke-miterlimit="10"/>
<path d="M186 963.3C188.761 963.3 191 961.061 191 958.3C191 955.538 188.761 953.3 186 953.3C183.239 953.3 181 955.538 181 958.3C181 961.061 183.239 963.3 186 963.3Z" fill="#F4E1FF" stroke="#9B9B9B" stroke-width="0.5" stroke-miterlimit="10"/>
<path d="M185.5 954.6C185.5 954.6 189.5 953.6 190.5 957.6C190.5 957.6 189.5 955.6 185.5 954.6Z" fill="white"/>
<path d="M351.4 983.8H309.6C307.3 983.8 305.5 982 305.5 979.7V937.9C305.5 935.6 307.3 933.8 309.6 933.8H351.4C353.7 933.8 355.5 935.6 355.5 937.9V979.7C355.5 982 353.7 983.8 351.4 983.8Z" fill="white" stroke="#100E14" stroke-miterlimit="10"/>
<path d="M318.7 951.1C321.461 951.1 323.7 948.861 323.7 946.1C323.7 943.338 321.461 941.1 318.7 941.1C315.939 941.1 313.7 943.338 313.7 946.1C313.7 948.861 315.939 951.1 318.7 951.1Z" fill="#320C44" stroke="#452060" stroke-miterlimit="10"/>
<path d="M318 942.3C318 942.3 322 941.3 323 945.3C323 945.3 322 943.3 318 942.3Z" fill="white"/>
<path d="M331 964.3C333.761 964.3 336 962.061 336 959.3C336 956.538 333.761 954.3 331 954.3C328.239 954.3 326 956.538 326 959.3C326 962.061 328.239 964.3 331 964.3Z" fill="#320C44" stroke="#452060" stroke-miterlimit="10"/>
<path d="M330.5 955.6C330.5 955.6 334.5 954.6 335.5 958.6C335.5 958.6 334.5 956.6 330.5 955.6Z" fill="white"/>
<path d="M342.5 976.8C345.261 976.8 347.5 974.561 347.5 971.8C347.5 969.038 345.261 966.8 342.5 966.8C339.739 966.8 337.5 969.038 337.5 971.8C337.5 974.561 339.739 976.8 342.5 976.8Z" fill="#320C44" stroke="#452060" stroke-miterlimit="10"/>
<path d="M342 968.3C342 968.3 346 967.3 347 971.3C347 971.3 346 969.3 342 968.3Z" fill="white"/>
<path d="M475.4 982.8H433.6C431.3 982.8 429.5 981 429.5 978.7V936.9C429.5 934.6 431.3 932.8 433.6 932.8H475.4C477.7 932.8 479.5 934.6 479.5 936.9V978.7C479.5 981 477.7 982.8 475.4 982.8Z" fill="white" stroke="#100E14" stroke-miterlimit="10"/>
<path d="M442.7 950.1C445.461 950.1 447.7 947.861 447.7 945.1C447.7 942.338 445.461 940.1 442.7 940.1C439.939 940.1 437.7 942.338 437.7 945.1C437.7 947.861 439.939 950.1 442.7 950.1Z" fill="#320C44" stroke="#452060" stroke-miterlimit="10"/>
<path d="M442 941.3C442 941.3 446 940.3 447 944.3C447 944.3 446 942.3 442 941.3Z" fill="white"/>
<path d="M466.5 975.8C469.261 975.8 471.5 973.561 471.5 970.8C471.5 968.038 469.261 965.8 466.5 965.8C463.739 965.8 461.5 968.038 461.5 970.8C461.5 973.561 463.739 975.8 466.5 975.8Z" fill="#320C44" stroke="#452060" stroke-miterlimit="10"/>
<path d="M466 967.3C466 967.3 470 966.3 471 970.3C471 970.3 470 968.3 466 967.3Z" fill="white"/>
<path d="M412.4 983.8H370.6C368.3 983.8 366.5 982 366.5 979.7V937.9C366.5 935.6 368.3 933.8 370.6 933.8H412.4C414.7 933.8 416.5 935.6 416.5 937.9V979.7C416.5 982 414.7 983.8 412.4 983.8Z" fill="white" stroke="#100E14" stroke-miterlimit="10"/>
<path d="M392 964.3C394.761 964.3 397 962.061 397 959.3C397 956.538 394.761 954.3 392 954.3C389.239 954.3 387 956.538 387 959.3C387 962.061 389.239 964.3 392 964.3Z" fill="#320C44" stroke="#452060" stroke-miterlimit="10"/>
<path d="M391.5 955.6C391.5 955.6 395.5 954.6 396.5 958.6C396.5 958.6 395.5 956.6 391.5 955.6Z" fill="white"/>
<path d="M145.4 924.8H103.6C101.3 924.8 99.5 923 99.5 920.7V878.9C99.5 876.6 101.3 874.8 103.6 874.8H145.4C147.7 874.8 149.5 876.6 149.5 878.9V920.7C149.5 923 147.7 924.8 145.4 924.8Z" fill="#320C44" stroke="#452060" stroke-miterlimit="10"/>
<path d="M112.7 892.1C115.461 892.1 117.7 889.861 117.7 887.1C117.7 884.338 115.461 882.1 112.7 882.1C109.939 882.1 107.7 884.338 107.7 887.1C107.7 889.861 109.939 892.1 112.7 892.1Z" fill="#F4E1FF" stroke="#9B9B9B" stroke-width="0.5" stroke-miterlimit="10"/>
<path d="M112 883.3C112 883.3 116 882.3 117 886.3C117 886.3 116 884.3 112 883.3Z" fill="white"/>
<path d="M136.5 892.1C139.261 892.1 141.5 889.861 141.5 887.1C141.5 884.338 139.261 882.1 136.5 882.1C133.739 882.1 131.5 884.338 131.5 887.1C131.5 889.861 133.739 892.1 136.5 892.1Z" fill="#F4E1FF" stroke="#9B9B9B" stroke-width="0.5" stroke-miterlimit="10"/>
<path d="M136 883.3C136 883.3 140 882.3 141 886.3C141 886.3 140 884.3 136 883.3Z" fill="white"/>
<path d="M136.5 917.8C139.261 917.8 141.5 915.561 141.5 912.8C141.5 910.038 139.261 907.8 136.5 907.8C133.739 907.8 131.5 910.038 131.5 912.8C131.5 915.561 133.739 917.8 136.5 917.8Z" fill="#F4E1FF" stroke="#9B9B9B" stroke-width="0.5" stroke-miterlimit="10"/>
<path d="M136 909.3C136 909.3 140 908.3 141 912.3C141 912.3 140 910.3 136 909.3Z" fill="white"/>
<path d="M112.7 917.8C115.461 917.8 117.7 915.561 117.7 912.8C117.7 910.038 115.461 907.8 112.7 907.8C109.939 907.8 107.7 910.038 107.7 912.8C107.7 915.561 109.939 917.8 112.7 917.8Z" fill="#F4E1FF" stroke="#9B9B9B" stroke-width="0.5" stroke-miterlimit="10"/>
<path d="M112 909.3C112 909.3 116 908.3 117 912.3C117 912.3 116 910.3 112 909.3Z" fill="white"/>
<path d="M347.4 923.8H305.6C303.3 923.8 301.5 922 301.5 919.7V877.9C301.5 875.6 303.3 873.8 305.6 873.8H347.4C349.7 873.8 351.5 875.6 351.5 877.9V919.7C351.5 922 349.7 923.8 347.4 923.8Z" fill="white" stroke="#100E14" stroke-miterlimit="10"/>
<path d="M314.7 891.1C317.461 891.1 319.7 888.861 319.7 886.1C319.7 883.338 317.461 881.1 314.7 881.1C311.939 881.1 309.7 883.338 309.7 886.1C309.7 888.861 311.939 891.1 314.7 891.1Z" fill="#320C44" stroke="#452060" stroke-miterlimit="10"/>
<path d="M314 882.3C314 882.3 318 881.3 319 885.3C319 885.3 318 883.3 314 882.3Z" fill="white"/>
<path d="M338.5 891.1C341.261 891.1 343.5 888.861 343.5 886.1C343.5 883.338 341.261 881.1 338.5 881.1C335.739 881.1 333.5 883.338 333.5 886.1C333.5 888.861 335.739 891.1 338.5 891.1Z" fill="#320C44" stroke="#452060" stroke-miterlimit="10"/>
<path d="M338 882.3C338 882.3 342 881.3 343 885.3C343 885.3 342 883.3 338 882.3Z" fill="white"/>
<path d="M338.5 916.8C341.261 916.8 343.5 914.561 343.5 911.8C343.5 909.038 341.261 906.8 338.5 906.8C335.739 906.8 333.5 909.038 333.5 911.8C333.5 914.561 335.739 916.8 338.5 916.8Z" fill="#320C44" stroke="#452060" stroke-miterlimit="10"/>
<path d="M338 908.3C338 908.3 342 907.3 343 911.3C343 911.3 342 909.3 338 908.3Z" fill="white"/>
<path d="M314.7 916.8C317.461 916.8 319.7 914.561 319.7 911.8C319.7 909.038 317.461 906.8 314.7 906.8C311.939 906.8 309.7 909.038 309.7 911.8C309.7 914.561 311.939 916.8 314.7 916.8Z" fill="#320C44" stroke="#452060" stroke-miterlimit="10"/>
<path d="M314 908.3C314 908.3 318 907.3 319 911.3C319 911.3 318 909.3 314 908.3Z" fill="white"/>
<path d="M267.4 924.8H225.6C223.3 924.8 221.5 923 221.5 920.7V878.9C221.5 876.6 223.3 874.8 225.6 874.8H267.4C269.7 874.8 271.5 876.6 271.5 878.9V920.7C271.5 923 269.7 924.8 267.4 924.8Z" fill="#320C44" stroke="#452060" stroke-miterlimit="10"/>
<path d="M234.7 892.1C237.461 892.1 239.7 889.861 239.7 887.1C239.7 884.338 237.461 882.1 234.7 882.1C231.939 882.1 229.7 884.338 229.7 887.1C229.7 889.861 231.939 892.1 234.7 892.1Z" fill="#F4E1FF" stroke="#9B9B9B" stroke-width="0.5" stroke-miterlimit="10"/>
<path d="M234 883.3C234 883.3 238 882.3 239 886.3C239 886.3 238 884.3 234 883.3Z" fill="white"/>
<path d="M258.5 892.1C261.261 892.1 263.5 889.861 263.5 887.1C263.5 884.338 261.261 882.1 258.5 882.1C255.739 882.1 253.5 884.338 253.5 887.1C253.5 889.861 255.739 892.1 258.5 892.1Z" fill="#F4E1FF" stroke="#9B9B9B" stroke-width="0.5" stroke-miterlimit="10"/>
<path d="M258 883.3C258 883.3 262 882.3 263 886.3C263 886.3 262 884.3 258 883.3Z" fill="white"/>
<path d="M246 905.3C248.761 905.3 251 903.061 251 900.3C251 897.538 248.761 895.3 246 895.3C243.239 895.3 241 897.538 241 900.3C241 903.061 243.239 905.3 246 905.3Z" fill="#F4E1FF" stroke="#9B9B9B" stroke-width="0.5" stroke-miterlimit="10"/>
<path d="M245.5 896.6C245.5 896.6 249.5 895.6 250.5 899.6C250.5 899.6 249.5 897.6 245.5 896.6Z" fill="white"/>
<path d="M258.5 917.8C261.261 917.8 263.5 915.561 263.5 912.8C263.5 910.038 261.261 907.8 258.5 907.8C255.739 907.8 253.5 910.038 253.5 912.8C253.5 915.561 255.739 917.8 258.5 917.8Z" fill="#F4E1FF" stroke="#9B9B9B" stroke-width="0.5" stroke-miterlimit="10"/>
<path d="M258 909.3C258 909.3 262 908.3 263 912.3C263 912.3 262 910.3 258 909.3Z" fill="white"/>
<path d="M234.7 917.8C237.461 917.8 239.7 915.561 239.7 912.8C239.7 910.038 237.461 907.8 234.7 907.8C231.939 907.8 229.7 910.038 229.7 912.8C229.7 915.561 231.939 917.8 234.7 917.8Z" fill="#F4E1FF" stroke="#9B9B9B" stroke-width="0.5" stroke-miterlimit="10"/>
<path d="M234 909.3C234 909.3 238 908.3 239 912.3C239 912.3 238 910.3 234 909.3Z" fill="white"/>
<path d="M475.4 922.8H433.6C431.3 922.8 429.5 921 429.5 918.7V876.9C429.5 874.6 431.3 872.8 433.6 872.8H475.4C477.7 872.8 479.5 874.6 479.5 876.9V918.7C479.5 921 477.7 922.8 475.4 922.8Z" fill="white" stroke="#100E14" stroke-miterlimit="10"/>
<path d="M442.7 890.1C445.461 890.1 447.7 887.861 447.7 885.1C447.7 882.338 445.461 880.1 442.7 880.1C439.939 880.1 437.7 882.338 437.7 885.1C437.7 887.861 439.939 890.1 442.7 890.1Z" fill="#320C44" stroke="#452060" stroke-miterlimit="10"/>
<path d="M442 881.3C442 881.3 446 880.3 447 884.3C447 884.3 446 882.3 442 881.3Z" fill="white"/>
<path d="M466.5 890.1C469.261 890.1 471.5 887.861 471.5 885.1C471.5 882.338 469.261 880.1 466.5 880.1C463.739 880.1 461.5 882.338 461.5 885.1C461.5 887.861 463.739 890.1 466.5 890.1Z" fill="#320C44" stroke="#452060" stroke-miterlimit="10"/>
<path d="M466 881.3C466 881.3 470 880.3 471 884.3C471 884.3 470 882.3 466 881.3Z" fill="white"/>
<path d="M454 903.3C456.761 903.3 459 901.061 459 898.3C459 895.538 456.761 893.3 454 893.3C451.239 893.3 449 895.538 449 898.3C449 901.061 451.239 903.3 454 903.3Z" fill="#320C44" stroke="#452060" stroke-miterlimit="10"/>
<path d="M453.5 894.6C453.5 894.6 457.5 893.6 458.5 897.6C458.5 897.6 457.5 895.6 453.5 894.6Z" fill="white"/>
<path d="M466.5 915.8C469.261 915.8 471.5 913.561 471.5 910.8C471.5 908.038 469.261 905.8 466.5 905.8C463.739 905.8 461.5 908.038 461.5 910.8C461.5 913.561 463.739 915.8 466.5 915.8Z" fill="#320C44" stroke="#452060" stroke-miterlimit="10"/>
<path d="M466 907.3C466 907.3 470 906.3 471 910.3C471 910.3 470 908.3 466 907.3Z" fill="white"/>
<path d="M442.7 915.8C445.461 915.8 447.7 913.561 447.7 910.8C447.7 908.038 445.461 905.8 442.7 905.8C439.939 905.8 437.7 908.038 437.7 910.8C437.7 913.561 439.939 915.8 442.7 915.8Z" fill="#320C44" stroke="#452060" stroke-miterlimit="10"/>
<path d="M442 907.3C442 907.3 446 906.3 447 910.3C447 910.3 446 908.3 442 907.3Z" fill="white"/>
<path d="M206.4 924.8H164.6C162.3 924.8 160.5 923 160.5 920.7V878.9C160.5 876.6 162.3 874.8 164.6 874.8H206.4C208.7 874.8 210.5 876.6 210.5 878.9V920.7C210.5 923 208.7 924.8 206.4 924.8Z" fill="#320C44" stroke="#452060" stroke-miterlimit="10"/>
<path d="M173.7 892.1C176.461 892.1 178.7 889.861 178.7 887.1C178.7 884.338 176.461 882.1 173.7 882.1C170.939 882.1 168.7 884.338 168.7 887.1C168.7 889.861 170.939 892.1 173.7 892.1Z" fill="#F4E1FF" stroke="#9B9B9B" stroke-width="0.5" stroke-miterlimit="10"/>
<path d="M173 883.3C173 883.3 177 882.3 178 886.3C178 886.3 177 884.3 173 883.3Z" fill="white"/>
<path d="M197.5 892.1C200.261 892.1 202.5 889.861 202.5 887.1C202.5 884.338 200.261 882.1 197.5 882.1C194.739 882.1 192.5 884.338 192.5 887.1C192.5 889.861 194.739 892.1 197.5 892.1Z" fill="#F4E1FF" stroke="#9B9B9B" stroke-width="0.5" stroke-miterlimit="10"/>
<path d="M197 883.3C197 883.3 201 882.3 202 886.3C202 886.3 201 884.3 197 883.3Z" fill="white"/>
<path d="M173.7 905.1C176.461 905.1 178.7 902.861 178.7 900.1C178.7 897.338 176.461 895.1 173.7 895.1C170.939 895.1 168.7 897.338 168.7 900.1C168.7 902.861 170.939 905.1 173.7 905.1Z" fill="#F4E1FF" stroke="#9B9B9B" stroke-width="0.5" stroke-miterlimit="10"/>
<path d="M173 896.3C173 896.3 177 895.3 178 899.3C178 899.3 177 897.3 173 896.3Z" fill="white"/>
<path d="M197.5 905.1C200.261 905.1 202.5 902.861 202.5 900.1C202.5 897.338 200.261 895.1 197.5 895.1C194.739 895.1 192.5 897.338 192.5 900.1C192.5 902.861 194.739 905.1 197.5 905.1Z" fill="#F4E1FF" stroke="#9B9B9B" stroke-width="0.5" stroke-miterlimit="10"/>
<path d="M197 896.3C197 896.3 201 895.3 202 899.3C202 899.3 201 897.3 197 896.3Z" fill="white"/>
<path d="M197.5 917.8C200.261 917.8 202.5 915.561 202.5 912.8C202.5 910.038 200.261 907.8 197.5 907.8C194.739 907.8 192.5 910.038 192.5 912.8C192.5 915.561 194.739 917.8 197.5 917.8Z" fill="#F4E1FF" stroke="#9B9B9B" stroke-width="0.5" stroke-miterlimit="10"/>
<path d="M197 909.3C197 909.3 201 908.3 202 912.3C202 912.3 201 910.3 197 909.3Z" fill="white"/>
<path d="M173.7 917.8C176.461 917.8 178.7 915.561 178.7 912.8C178.7 910.038 176.461 907.8 173.7 907.8C170.939 907.8 168.7 910.038 168.7 912.8C168.7 915.561 170.939 917.8 173.7 917.8Z" fill="#F4E1FF" stroke="#9B9B9B" stroke-width="0.5" stroke-miterlimit="10"/>
<path d="M173 909.3C173 909.3 177 908.3 178 912.3C178 912.3 177 910.3 173 909.3Z" fill="white"/>
<path d="M412.4 922.8H370.6C368.3 922.8 366.5 921 366.5 918.7V876.9C366.5 874.6 368.3 872.8 370.6 872.8H412.4C414.7 872.8 416.5 874.6 416.5 876.9V918.7C416.5 921 414.7 922.8 412.4 922.8Z" fill="white" stroke="#100E14" stroke-miterlimit="10"/>
<path d="M379.7 890.1C382.461 890.1 384.7 887.861 384.7 885.1C384.7 882.338 382.461 880.1 379.7 880.1C376.939 880.1 374.7 882.338 374.7 885.1C374.7 887.861 376.939 890.1 379.7 890.1Z" fill="#320C44" stroke="#452060" stroke-miterlimit="10"/>
<path d="M379 881.3C379 881.3 383 880.3 384 884.3C384 884.3 383 882.3 379 881.3Z" fill="white"/>
<path d="M403.5 890.1C406.261 890.1 408.5 887.861 408.5 885.1C408.5 882.338 406.261 880.1 403.5 880.1C400.739 880.1 398.5 882.338 398.5 885.1C398.5 887.861 400.739 890.1 403.5 890.1Z" fill="#320C44" stroke="#452060" stroke-miterlimit="10"/>
<path d="M403 881.3C403 881.3 407 880.3 408 884.3C408 884.3 407 882.3 403 881.3Z" fill="white"/>
<path d="M379.7 903.1C382.461 903.1 384.7 900.861 384.7 898.1C384.7 895.338 382.461 893.1 379.7 893.1C376.939 893.1 374.7 895.338 374.7 898.1C374.7 900.861 376.939 903.1 379.7 903.1Z" fill="#320C44" stroke="#452060" stroke-miterlimit="10"/>
<path d="M379 894.3C379 894.3 383 893.3 384 897.3C384 897.3 383 895.3 379 894.3Z" fill="white"/>
<path d="M403.5 903.1C406.261 903.1 408.5 900.861 408.5 898.1C408.5 895.338 406.261 893.1 403.5 893.1C400.739 893.1 398.5 895.338 398.5 898.1C398.5 900.861 400.739 903.1 403.5 903.1Z" fill="#320C44" stroke="#452060" stroke-miterlimit="10"/>
<path d="M403 894.3C403 894.3 407 893.3 408 897.3C408 897.3 407 895.3 403 894.3Z" fill="white"/>
<path d="M403.5 915.8C406.261 915.8 408.5 913.561 408.5 910.8C408.5 908.038 406.261 905.8 403.5 905.8C400.739 905.8 398.5 908.038 398.5 910.8C398.5 913.561 400.739 915.8 403.5 915.8Z" fill="#320C44" stroke="#452060" stroke-miterlimit="10"/>
<path d="M403 907.3C403 907.3 407 906.3 408 910.3C408 910.3 407 908.3 403 907.3Z" fill="white"/>
<path d="M379.7 915.8C382.461 915.8 384.7 913.561 384.7 910.8C384.7 908.038 382.461 905.8 379.7 905.8C376.939 905.8 374.7 908.038 374.7 910.8C374.7 913.561 376.939 915.8 379.7 915.8Z" fill="#320C44" stroke="#452060" stroke-miterlimit="10"/>
<path d="M379 907.3C379 907.3 383 906.3 384 910.3C384 910.3 383 908.3 379 907.3Z" fill="white"/>
<path d="M1033.4 808.5H985.5C978.6 808.5 972.9 802.9 972.9 795.9V528.1C972.9 521.2 978.5 515.5 985.5 515.5H1033.4C1040.3 515.5 1046 521.1 1046 528.1V796C1046 802.9 1040.4 808.5 1033.4 808.5Z" fill="#320C44" stroke="#0B0B0C" stroke-miterlimit="10"/>
<path d="M95.4 388.5H47.6C40.7 388.5 35 382.9 35 375.9V108.1C35 101.2 40.6 95.5 47.6 95.5H95.5C102.4 95.5 108.1 101.1 108.1 108.1V376C108 382.9 102.4 388.5 95.4 388.5Z" fill="#320C44" stroke="#0B0B0C" stroke-miterlimit="10"/>
<rect x="776.5" y="415.5" width="131" height="73" rx="17.5" fill="url(#paint3_linear_201_2098)"/>
<path d="M800.527 455.059C801.496 455.262 802.422 455.363 803.305 455.363C806.039 455.363 807.406 454.734 807.406 453.477C807.406 451.93 805.82 450.16 802.648 448.168L802.449 448.039L802.578 447.84L803.762 446.059L803.879 445.871L804.066 445.988C808.012 448.34 809.984 450.824 809.984 453.441C809.984 454.949 809.43 456.082 808.32 456.84C807.211 457.59 805.59 457.969 803.457 457.977C802.293 457.977 801.285 457.883 800.434 457.695L800.246 457.648V457.461V455.293V455L800.527 455.059ZM816.641 451.473L817.309 453.734C817.473 454.297 817.719 454.711 818.047 454.977C818.375 455.242 818.797 455.375 819.312 455.375H819.641C819.75 455.375 819.836 455.406 819.898 455.469C819.969 455.531 820.016 455.625 820.039 455.75C820.07 455.875 820.09 455.984 820.098 456.078C820.105 456.164 820.109 456.289 820.109 456.453V456.734C820.109 456.742 820.109 456.762 820.109 456.793C820.109 456.98 820.105 457.125 820.098 457.227C820.09 457.328 820.074 457.449 820.051 457.59C820.027 457.73 819.98 457.836 819.91 457.906C819.84 457.969 819.75 458 819.641 458H819.441C818.559 458 817.906 457.867 817.484 457.602C816.867 461.172 814.121 463.219 809.246 463.742L809.035 463.766L808.988 463.566L808.484 461.574L808.426 461.305L808.695 461.281C810.867 461.062 812.48 460.512 813.535 459.629C814.598 458.746 815.125 457.527 815.117 455.973C815.117 454.832 814.816 453.617 814.215 452.328L814.109 452.094L814.344 452.012L816.348 451.32L816.57 451.238L816.641 451.473ZM826.742 449.879C827.805 451.02 828.324 452.281 828.301 453.664C828.277 455.117 827.656 456.203 826.438 456.922C825.219 457.641 823.449 458 821.129 458H819.453C819.148 458 818.922 457.887 818.773 457.66C818.617 457.426 818.539 457.117 818.539 456.734V456.512C818.539 456.168 818.617 455.895 818.773 455.691C818.93 455.48 819.156 455.375 819.453 455.375H821.117C824.188 455.375 825.727 454.707 825.734 453.371C825.734 452.676 825.355 451.969 824.598 451.25C823.402 450.141 822.34 449.223 821.41 448.496C820.941 448.129 820.586 447.746 820.344 447.348C820.102 446.949 819.98 446.539 819.98 446.117C819.98 445 820.578 444.211 821.773 443.75L829.895 440.668L830.211 440.551V440.891V443.012V443.164L830.059 443.223L822.559 446.023C823.191 446.562 823.766 447.062 824.281 447.523C824.805 447.977 825.27 448.402 825.676 448.801C826.09 449.191 826.445 449.551 826.742 449.879ZM829.941 439.414L820.777 442.941L820.602 443V442.824V441.324V441.23L820.684 441.195L829.836 437.68L830.012 437.609V437.797V439.297V439.391L829.941 439.414ZM847.648 458C844.523 458 842.156 457.508 840.547 456.523C838.945 455.539 838.145 454.055 838.145 452.07C838.145 450.984 838.363 449.949 838.801 448.965L838.906 448.754L839.117 448.848L840.957 449.645L841.168 449.738L841.086 449.949C840.836 450.582 840.711 451.184 840.711 451.754C840.711 454.168 843.004 455.375 847.59 455.375C848.59 455.375 849.5 455.344 850.32 455.281C851.148 455.211 851.867 455.113 852.477 454.988C853.086 454.863 853.598 454.715 854.012 454.543C854.426 454.363 854.738 454.156 854.949 453.922C855.059 453.812 855.141 453.652 855.195 453.441C855.258 453.23 855.289 452.969 855.289 452.656C855.289 452.57 855.289 452.488 855.289 452.41C855.289 452.332 855.285 452.262 855.277 452.199C855.277 452.129 855.277 452.066 855.277 452.012L855.207 451.051L855.195 450.828L855.418 450.805L857.34 450.57L857.586 450.547L857.609 450.793L857.797 453.312C857.844 453.922 858.02 454.426 858.324 454.824C858.621 455.191 859.109 455.375 859.789 455.375H859.941C860.02 455.375 860.086 455.391 860.141 455.422C860.195 455.453 860.238 455.504 860.27 455.574C860.309 455.637 860.336 455.695 860.352 455.75C860.375 455.805 860.391 455.887 860.398 455.996C860.406 456.105 860.41 456.191 860.41 456.254C860.41 456.309 860.41 456.395 860.41 456.512V456.734C860.41 456.75 860.41 456.773 860.41 456.805C860.41 456.992 860.406 457.137 860.398 457.238C860.398 457.34 860.383 457.461 860.352 457.602C860.328 457.742 860.281 457.844 860.211 457.906C860.141 457.969 860.051 458 859.941 458H859.789C858.164 458 856.973 457.359 856.215 456.078C854.777 457.359 851.938 458 847.695 458H847.648ZM846.066 461.621L847.766 459.922L847.859 459.828L847.941 459.922L849.664 461.633L849.746 461.727L849.664 461.809L847.953 463.52L847.871 463.602L847.777 463.52L846.066 461.797L845.973 461.715L846.066 461.621ZM865.32 450.418C864.898 450.832 864.688 451.234 864.688 451.625C864.688 452.047 864.918 452.523 865.379 453.055C865.645 453.359 865.875 453.59 866.07 453.746C866.273 453.895 866.422 453.969 866.516 453.969C866.555 453.969 866.605 453.953 866.668 453.922C866.738 453.883 866.82 453.828 866.914 453.758C867.008 453.688 867.117 453.594 867.242 453.477C867.375 453.352 867.512 453.211 867.652 453.055C868.113 452.523 868.344 452.051 868.344 451.637C868.344 451.59 868.34 451.543 868.332 451.496C868.324 451.449 868.312 451.402 868.297 451.355C868.289 451.301 868.273 451.25 868.25 451.203C868.234 451.156 868.215 451.109 868.191 451.062C868.168 451.008 868.141 450.957 868.109 450.91C868.078 450.855 868.043 450.805 868.004 450.758C867.965 450.703 867.922 450.648 867.875 450.594C867.836 450.539 867.789 450.484 867.734 450.43C867.68 450.375 867.621 450.32 867.559 450.266C867.496 450.211 867.434 450.156 867.371 450.102C867.012 449.812 866.703 449.668 866.445 449.668C866.375 449.668 866.289 449.691 866.188 449.738C866.086 449.785 865.957 449.867 865.801 449.984C865.652 450.102 865.492 450.246 865.32 450.418ZM866.469 456.535C865.055 457.512 862.988 458 860.27 458H859.789C859.484 458 859.258 457.887 859.109 457.66C858.953 457.426 858.875 457.117 858.875 456.734V456.512C858.875 456.168 858.953 455.895 859.109 455.691C859.266 455.48 859.492 455.375 859.789 455.375H860.27C861.91 455.367 863.086 455.281 863.797 455.117C862.711 454.086 862.168 452.879 862.168 451.496C862.168 450.051 862.973 448.77 864.582 447.652C865.176 447.238 865.82 447.031 866.516 447.031C867.195 447.031 867.785 447.184 868.285 447.488C870.012 448.535 870.875 449.918 870.875 451.637C870.875 452.941 870.328 454.102 869.234 455.117C869.906 455.289 870.801 455.375 871.918 455.375H872.293C872.371 455.375 872.438 455.391 872.492 455.422C872.555 455.453 872.602 455.504 872.633 455.574C872.664 455.637 872.688 455.695 872.703 455.75C872.727 455.805 872.742 455.887 872.75 455.996C872.758 456.105 872.762 456.191 872.762 456.254C872.762 456.309 872.762 456.395 872.762 456.512V456.734C872.762 456.75 872.762 456.777 872.762 456.816C872.762 457.004 872.758 457.148 872.75 457.25C872.75 457.344 872.734 457.461 872.703 457.602C872.68 457.742 872.633 457.844 872.562 457.906C872.5 457.969 872.41 458 872.293 458H871.941C869.668 458 867.844 457.512 866.469 456.535ZM866.469 443.363L868.168 441.664L868.262 441.57L868.344 441.664L870.066 443.375L870.148 443.469L870.066 443.551L868.355 445.262L868.273 445.344L868.18 445.262L866.469 443.539L866.375 443.457L866.469 443.363ZM862.648 443.363L864.359 441.664L864.441 441.57L864.535 441.664L866.246 443.375L866.34 443.469L866.246 443.551L864.547 445.262L864.453 445.344L864.371 445.262L862.648 443.539L862.566 443.457L862.648 443.363ZM882.16 451.098C881.691 450.715 881.23 450.43 880.777 450.242C880.324 450.047 879.871 449.949 879.418 449.949C879.301 449.949 879.188 449.953 879.078 449.961C878.969 449.961 878.859 449.973 878.75 449.996C878.648 450.012 878.547 450.031 878.445 450.055C878.352 450.078 878.258 450.105 878.164 450.137C877.977 450.207 877.805 450.293 877.648 450.395C877.492 450.488 877.348 450.598 877.215 450.723C876.965 450.973 876.773 451.254 876.641 451.566C876.609 451.637 876.582 451.715 876.559 451.801C876.535 451.879 876.516 451.961 876.5 452.047C876.484 452.133 876.473 452.223 876.465 452.316C876.457 452.402 876.453 452.492 876.453 452.586C876.453 453.062 876.59 453.488 876.863 453.863C877.145 454.238 877.574 454.566 878.152 454.848C878.23 454.887 878.293 454.914 878.34 454.93L883.402 453.652L883.695 453.57V453.875V456.031V456.195L883.531 456.254C879.789 457.418 876.344 458 873.195 458H872.117C871.812 458 871.586 457.887 871.438 457.66C871.281 457.426 871.203 457.117 871.203 456.734V456.512C871.203 456.34 871.223 456.188 871.262 456.055C871.301 455.914 871.359 455.793 871.438 455.691C871.508 455.59 871.602 455.512 871.719 455.457C871.836 455.402 871.969 455.375 872.117 455.375H874.895C874.848 455.312 874.801 455.25 874.754 455.188C874.715 455.125 874.672 455.062 874.625 455C874.398 454.648 874.227 454.262 874.109 453.84C873.992 453.418 873.938 452.961 873.945 452.469C873.953 451.133 874.316 450.012 875.035 449.105C875.426 448.613 875.91 448.211 876.488 447.898C877.246 447.492 878.129 447.293 879.137 447.301C880.809 447.309 882.184 447.875 883.262 449L883.379 449.117L883.309 449.258L882.523 451.016L882.395 451.297L882.16 451.098Z" fill="#FFF4FE"/>
<rect x="776.5" y="415.5" width="131" height="73" rx="17.5" stroke="#FFCCFA"/>
<rect x="636.5" y="415.5" width="131" height="73" rx="17.5" fill="url(#paint4_linear_201_2098)"/>
<path d="M679.137 453.008C679.137 450.633 681.152 448.809 685.184 447.535L685.125 447.207L685.078 446.973L685.301 446.926L687.211 446.539L687.445 446.492L687.48 446.738L688.453 453.664C688.508 454.055 688.613 454.379 688.77 454.637C688.926 454.887 689.137 455.074 689.402 455.199C689.676 455.316 690.008 455.375 690.398 455.375H690.633C690.742 455.375 690.832 455.406 690.902 455.469C690.973 455.531 691.02 455.625 691.043 455.75C691.066 455.875 691.082 455.984 691.09 456.078C691.098 456.164 691.102 456.289 691.102 456.453V456.734C691.102 456.742 691.102 456.762 691.102 456.793C691.102 456.98 691.098 457.125 691.09 457.227C691.082 457.328 691.066 457.449 691.043 457.59C691.02 457.73 690.973 457.836 690.902 457.906C690.832 457.969 690.742 458 690.633 458H690.352C688.242 458 686.934 457.176 686.426 455.527C685.973 455.871 685.496 456.133 684.996 456.312C684.496 456.484 683.969 456.57 683.414 456.57C681.586 456.57 680.305 455.965 679.57 454.754C679.281 454.27 679.137 453.688 679.137 453.008ZM685.547 449.949C684.25 450.441 683.281 450.938 682.641 451.438C682.008 451.93 681.691 452.406 681.691 452.867C681.691 453.07 681.719 453.246 681.773 453.395C681.836 453.535 681.934 453.656 682.066 453.758C682.199 453.859 682.371 453.938 682.582 453.992C682.793 454.039 683.043 454.062 683.332 454.062C683.895 454.062 684.457 453.891 685.02 453.547C685.684 453.141 685.945 452.477 685.805 451.555L685.559 449.996L685.547 449.949ZM697.945 455.691C698.438 455.691 698.793 455.582 699.012 455.363C699.238 455.145 699.352 454.797 699.352 454.32C699.352 453.852 699.277 453.445 699.129 453.102C698.801 452.344 698.25 451.965 697.477 451.965C696.539 451.965 695.801 452.68 695.262 454.109C696.215 455.164 697.109 455.691 697.945 455.691ZM693.996 456.43C693.02 457.477 691.922 458 690.703 458H690.457C690.152 458 689.926 457.887 689.777 457.66C689.629 457.426 689.555 457.117 689.555 456.734V456.512C689.555 456.168 689.633 455.895 689.789 455.691C689.938 455.48 690.16 455.375 690.457 455.375H690.645C691.207 455.375 691.77 455.035 692.332 454.355C692.59 454.043 692.875 453.531 693.188 452.82C694.258 450.461 695.672 449.277 697.43 449.27C698.109 449.27 698.719 449.395 699.258 449.645C699.805 449.887 700.273 450.254 700.664 450.746C701.438 451.715 701.824 452.848 701.824 454.145C701.824 455.41 701.547 456.375 700.992 457.039C700.289 457.852 699.328 458.258 698.109 458.258C696.602 458.258 695.23 457.648 693.996 456.43ZM704.73 441.148H706.758H706.992V441.383V457.754V457.988H706.758H704.73H704.496V457.754V441.383V441.148H704.73ZM709.793 455.059C710.762 455.262 711.688 455.363 712.57 455.363C715.305 455.363 716.672 454.734 716.672 453.477C716.672 451.93 715.086 450.16 711.914 448.168L711.715 448.039L711.844 447.84L713.027 446.059L713.145 445.871L713.332 445.988C717.277 448.34 719.25 450.824 719.25 453.441C719.25 454.949 718.695 456.082 717.586 456.84C716.477 457.59 714.855 457.969 712.723 457.977C711.559 457.977 710.551 457.883 709.699 457.695L709.512 457.648V457.461V455.293V455L709.793 455.059ZM722.098 441.148H724.125H724.359V441.383V457.754V457.988H724.125H722.098H721.863V457.754V441.383V441.148H722.098Z" fill="#FFF4FE"/>
<rect x="636.5" y="415.5" width="131" height="73" rx="17.5" stroke="#FFCCFA"/>
<rect width="1049" height="764" rx="10" transform="matrix(1 0 0 -1 15 1732)" fill="url(#paint5_linear_201_2098)"/>
<path d="M15 1799C15 1793.48 19.4772 1789 25 1789H1054C1059.52 1789 1064 1793.48 1064 1799V2543C1064 2548.52 1059.52 2553 1054 2553H25C19.4771 2553 15 2548.52 15 2543V1799Z" fill="url(#paint6_linear_201_2098)"/>
<path d="M42 2885.9L74 2577L104 2886.1L42 2885.9Z" fill="url(#paint7_linear_201_2098)" stroke="#F3CA38" stroke-width="2" stroke-miterlimit="10"/>
<defs>
<linearGradient id="paint0_linear_201_2098" x1="281.5" y1="492.9" x2="281.5" y2="802" gradientUnits="userSpaceOnUse">
<stop stop-color="#D969C0" stop-opacity="0"/>
<stop offset="1" stop-color="#F3CA38" stop-opacity="0.32"/>
</linearGradient>
<linearGradient id="paint1_linear_201_2098" x1="406" y1="617" x2="406" y2="677" gradientUnits="userSpaceOnUse">
<stop stop-color="#D969C0" stop-opacity="0"/>
<stop offset="1" stop-color="#F3CA38" stop-opacity="0.32"/>
</linearGradient>
<linearGradient id="paint2_linear_201_2098" x1="182" y1="2826" x2="182" y2="2886" gradientUnits="userSpaceOnUse">
<stop stop-color="#D969C0" stop-opacity="0"/>
<stop offset="1" stop-color="#F3CA38" stop-opacity="0.32"/>
</linearGradient>
<linearGradient id="paint3_linear_201_2098" x1="842" y1="415" x2="842" y2="489" gradientUnits="userSpaceOnUse">
<stop stop-color="#FBF2F2" stop-opacity="0.52"/>
<stop offset="1" stop-color="#FEE2FF" stop-opacity="0.34"/>
</linearGradient>
<linearGradient id="paint4_linear_201_2098" x1="702" y1="415" x2="702" y2="489" gradientUnits="userSpaceOnUse">
<stop stop-color="#FBF2F2" stop-opacity="0.52"/>
<stop offset="1" stop-color="#FEE2FF" stop-opacity="0.34"/>
</linearGradient>
<linearGradient id="paint5_linear_201_2098" x1="525" y1="-94" x2="525" y2="746" gradientUnits="userSpaceOnUse">
<stop offset="0.0666185" stop-color="#FF7ED3"/>
<stop offset="0.57732" stop-color="#511B66" stop-opacity="0"/>
<stop offset="0.726919" stop-color="#511B66" stop-opacity="0"/>
</linearGradient>
<linearGradient id="paint6_linear_201_2098" x1="540" y1="1695" x2="540" y2="2535" gradientUnits="userSpaceOnUse">
<stop offset="0.0666185" stop-color="#FF7ED3"/>
<stop offset="0.57732" stop-color="#511B66" stop-opacity="0"/>
<stop offset="0.726919" stop-color="#511B66" stop-opacity="0"/>
</linearGradient>
<linearGradient id="paint7_linear_201_2098" x1="73" y1="2577" x2="73" y2="2886.1" gradientUnits="userSpaceOnUse">
<stop stop-color="#D969C0" stop-opacity="0"/>
<stop offset="1" stop-color="#F3CA38" stop-opacity="0.32"/>
</linearGradient>
</defs>
</svg>
